<svg width="48" height="48" viewBox="0 0 48 48" fill="none" xmlns="http://www.w3.org/2000/svg">
<path opacity="0.12" d="M47.2959 20.9941C47.2959 16.6403 44.4475 12.9525 40.5129 11.6906C40.525 11.5367 40.5327 11.3818 40.5327 11.2251C40.5327 7.90503 37.8411 5.21338 34.521 5.21338C33.7952 5.21338 33.0997 5.34192 32.4556 5.57776C30.7648 2.66418 27.6117 0.70459 24.0005 0.70459C20.015 0.70459 16.5873 3.09155 15.0679 6.51379C14.3633 6.16296 13.5693 5.96484 12.7285 5.96484C10.4507 5.96484 8.51123 7.41284 7.77991 9.43872C3.69482 10.6084 0.705078 14.3705 0.705078 18.8313C0.705078 22.9537 3.2583 26.4792 6.86987 27.9137C6.771 28.3469 6.7168 28.797 6.7168 29.2603C6.7168 32.5803 9.40845 35.272 12.7285 35.272C14.1395 35.272 15.4359 34.7845 16.4617 33.9708C18.2535 36.1421 20.9653 37.5264 24.0005 37.5264C27.1016 37.5264 29.8646 36.0813 31.6543 33.828C32.5973 34.7223 33.8702 35.272 35.2725 35.272C38.0831 35.272 40.3785 33.0677 40.525 30.2937C44.4534 29.0281 47.2959 25.3433 47.2959 20.9941Z" fill="#009AE0"/>
<path opacity="0.24" d="M38.2783 32.2661C36.8761 32.2661 35.6031 31.7164 34.6602 30.8221C32.8705 33.0754 30.1074 34.5205 27.0063 34.5205C23.9712 34.5205 21.2594 33.1362 19.4675 30.965C18.4418 31.7787 17.1454 32.2661 15.7344 32.2661C12.4143 32.2661 9.72266 29.5745 9.72266 26.2544C9.72266 25.7911 9.77686 25.3411 9.87573 24.9078C6.26453 23.4734 3.71094 19.9479 3.71094 15.8254C3.71094 13.897 4.27051 12.1 5.23474 10.5857C2.51196 12.3193 0.705078 15.364 0.705078 18.8313C0.705078 22.9537 3.2583 26.4792 6.86987 27.9137C6.771 28.3469 6.7168 28.797 6.7168 29.2603C6.7168 32.5803 9.40845 35.272 12.7285 35.272C14.1395 35.272 15.4359 34.7845 16.4617 33.9708C18.2535 36.1421 20.9653 37.5264 24.0005 37.5264C27.1016 37.5264 29.8646 36.0813 31.6543 33.828C32.5973 34.7223 33.8702 35.272 35.2725 35.272C37.5074 35.272 39.4158 33.8774 40.1775 31.9113C39.5883 32.1398 38.9481 32.2661 38.2783 32.2661Z" fill="#009AE0"/>
<path opacity="0.12" d="M8.9707 45.041C8.9707 43.7959 7.62488 42.7866 5.96484 42.7866C4.30481 42.7866 2.95898 43.7959 2.95898 45.041C2.95898 46.2861 4.30481 47.2954 5.96484 47.2954C7.62488 47.2954 8.9707 46.2861 8.9707 45.041Z" fill="#009AE0"/>
<path opacity="0.12" d="M15.7344 40.5322C15.7344 39.2871 14.3885 38.2778 12.7285 38.2778C11.0685 38.2778 9.72266 39.2871 9.72266 40.5322C9.72266 41.7773 11.0685 42.7866 12.7285 42.7866C14.3885 42.7866 15.7344 41.7773 15.7344 40.5322Z" fill="#009AE0"/>
<path d="M45.8873 14.6854C45.6526 14.3752 45.2106 14.3134 44.9004 14.5481C44.5898 14.7828 44.5283 15.2245 44.7631 15.535C45.9587 17.1171 46.5908 19.0049 46.5908 20.9941C46.5908 24.9448 44.0662 28.4125 40.3085 29.6232C40.0305 29.7129 39.8364 29.9648 39.821 30.2567C39.6932 32.6741 37.6952 34.5674 35.272 34.5674C34.1019 34.5674 32.989 34.1232 32.1387 33.3168C31.9951 33.1809 31.8014 33.1117 31.6044 33.1252C31.4073 33.1392 31.225 33.2351 31.1023 33.3896C29.3698 35.5708 26.781 36.8218 24 36.8218C21.2845 36.8218 18.7346 35.6191 17.0046 33.5222C16.76 33.2263 16.3239 33.1802 16.0232 33.4189C15.0762 34.1704 13.9369 34.5677 12.728 34.5677C9.80164 34.5677 7.4209 32.1866 7.4209 29.2603C7.4209 28.864 7.46631 28.4637 7.5564 28.0712C7.63403 27.7324 7.45276 27.3875 7.12976 27.2593C3.65442 25.879 1.40918 22.571 1.40918 18.8313C1.40918 14.8066 4.10852 11.2225 7.97351 10.1162C8.19067 10.054 8.36536 9.89099 8.44226 9.67786C9.09192 7.8783 10.8142 6.66943 12.728 6.66943C13.4385 6.66943 14.12 6.8291 14.7535 7.14441C14.9257 7.2301 15.1256 7.24182 15.3062 7.17664C15.4871 7.11145 15.6332 6.97522 15.7115 6.7998C17.165 3.52478 20.4188 1.40918 24 1.40918C27.2208 1.40918 30.2271 3.14172 31.8457 5.93115C32.0171 6.22668 32.376 6.35669 32.6971 6.23914C33.2802 6.026 33.8936 5.91797 34.5205 5.91797C37.4469 5.91797 39.8276 8.29871 39.8276 11.2251C39.8276 11.3474 39.8221 11.4822 39.8101 11.6367C39.7852 11.9619 39.9869 12.2618 40.2975 12.3615C41.0295 12.5962 41.7305 12.925 42.3812 13.3385C42.7097 13.5472 43.1451 13.4502 43.3539 13.1217C43.5626 12.7932 43.4652 12.3582 43.1371 12.1494C42.5369 11.7678 41.8997 11.4489 41.2368 11.1976C41.2222 7.50696 38.2148 4.50879 34.5205 4.50879C33.9232 4.50879 33.3354 4.58643 32.766 4.7406C30.8394 1.80286 27.5314 0 24 0C20.0944 0 16.5264 2.17786 14.7257 5.60376C14.087 5.37561 13.418 5.26025 12.728 5.26025C10.3433 5.26025 8.18555 6.69397 7.24951 8.86377C5.24121 9.51453 3.44055 10.7864 2.15039 12.4728C0.743774 14.3115 0 16.5103 0 18.8313C0 20.9703 0.640869 23.0277 1.85339 24.7811C2.92639 26.3331 4.37805 27.5541 6.07581 28.3392C6.03333 28.6458 6.01172 28.9537 6.01172 29.2603C6.01172 32.9637 9.02454 35.9766 12.728 35.9766C14.0321 35.9766 15.2728 35.6111 16.3528 34.9142C18.3314 37.0302 21.0828 38.231 24 38.231C26.9722 38.231 29.7535 36.995 31.7377 34.816C32.7579 35.5686 33.9884 35.9766 35.272 35.9766C38.2822 35.9766 40.7919 33.7438 41.1833 30.8108C45.2802 29.2896 48 25.4019 48 20.9941C48 18.6958 47.2694 16.5143 45.8873 14.6854Z" fill="#00688F"/>
<path d="M5.96436 42.082C3.91833 42.082 2.25391 43.4095 2.25391 45.041C2.25391 46.6725 3.91833 48 5.96436 48C8.01001 48 9.6748 46.6725 9.6748 45.041C9.6748 43.4095 8.01001 42.082 5.96436 42.082ZM5.96436 46.5908C4.71667 46.5908 3.66309 45.8811 3.66309 45.041C3.66309 44.2009 4.71667 43.4912 5.96436 43.4912C7.21167 43.4912 8.26562 44.2009 8.26562 45.041C8.26562 45.8811 7.21167 46.5908 5.96436 46.5908Z" fill="#00688F"/>
<path d="M12.728 37.5732C10.682 37.5732 9.01758 38.9008 9.01758 40.5322C9.01758 42.1637 10.682 43.4912 12.728 43.4912C14.7737 43.4912 16.4385 42.1637 16.4385 40.5322C16.4385 38.9008 14.7737 37.5732 12.728 37.5732ZM12.728 42.082C11.4807 42.082 10.4268 41.3723 10.4268 40.5322C10.4268 39.6921 11.4807 38.9824 12.728 38.9824C13.9753 38.9824 15.0293 39.6921 15.0293 40.5322C15.0293 41.3723 13.9753 42.082 12.728 42.082Z" fill="#00688F"/>
<path d="M19 15.2727H20.8831C21.0042 13.698 22.0614 12.7179 23.7242 12.7179C25.3651 12.7179 26.4222 13.72 26.4222 15.0855C26.4222 16.2638 25.9267 16.9576 24.6493 17.7395C23.1406 18.6425 22.4358 19.6335 22.4468 21.0872V22.1003H24.374V21.3845C24.374 20.2283 24.7704 19.6115 26.1689 18.7856C27.5785 17.9377 28.4705 16.7153 28.4705 14.9864C28.4705 12.7179 26.5764 11 23.8013 11C20.7069 11 19.1211 12.8941 19 15.2727ZM23.5591 27.21C24.451 27.21 25.0787 26.5713 25.0787 25.6793C25.0787 24.7763 24.451 24.1376 23.5591 24.1376C22.6671 24.1376 22.0284 24.7763 22.0284 25.6793C22.0284 26.5713 22.6671 27.21 23.5591 27.21Z" fill="black" fill-opacity="0.87"/>
</svg>
